<svg xmlns="http://www.w3.org/2000/svg" viewBox="0 0 538 481" role="img" aria-label="beFince"><g transform="translate(0 0) scale(0.333333) translate(0 1443) scale(0.1 -0.1)" fill="#0A2540"><path d="M15600 14094 c-285 -92 -314 -101 -595 -189 -82 -26 -253 -80 -380 -121 -126 -41 -270 -88 -320 -103 -49 -16 -193 -63 -320 -104 -126 -41 -338 -109 -470 -152 -132 -42 -307 -98 -390 -125 -82 -26 -186 -59 -230 -73 -315 -99 -801 -255 -925 -297 -47 -16 -99 -32 -117 -35 -59 -12 -48 -28 145 -212 102 -98 279 -266 392 -374 113 -108 250 -239 305 -291 99 -95 99 -95 82 -119 -9 -13 -62 -85 -117 -159 -94 -127 -267 -365 -300 -413 -211 -316 -424 -508 -658 -592 -167 -60 -127 -58 -1012 -66 -796 -7 -868 -10 -1095 -44 -747 -111 -1407 -539 -1876 -1218 -57 -84 -280 -417 -364 -547 -38 -58 -145 -222 -240 -365 -198 -302 -369 -562 -428 -655 -39 -61 -102 -159 -324 -500 -52 -80 -178 -273 -280 -430 -102 -157 -210 -318 -240 -358 -30 -40 -56 -79 -59 -87 -3 -8 60 -78 154 -171 299 -298 556 -699 712 -1109 63 -166 69 -172 99 -101 55 128 180 320 514 788 320 450 341 480 675 983 982 1479 1141 1710 1263 1835 179 181 421 301 689 341 49 8 420 14 1065 19 545 4 1004 11 1020 15 17 4 62 13 100 21 472 92 762 276 1102 701 91 114 280 367 430 574 140 195 329 439 338 439 7 0 34 -24 60 -52 27 -29 130 -136 229 -238 100 -102 293 -301 430 -442 238 -246 266 -272 281 -248 6 10 76 310 181 780 26 113 57 252 71 310 13 58 30 137 39 175 8 39 24 106 35 150 11 44 33 139 49 210 16 72 47 211 69 310 22 99 47 214 55 255 29 140 69 323 151 685 30 132 64 285 75 340 12 55 34 161 51 235 17 74 37 167 45 205 8 39 34 162 58 275 95 441 92 426 74 432 -7 3 -141 -37 -298 -88z M240 8688 c0 -4842 -4 -4501 55 -4883 181 -1191 868 -2251 1905 -2942 753 -501 1800 -720 2711 -568 907 152 1643 532 2199 1136 621 674 965 1363 1140 2284 53 281 73 358 130 500 160 404 478 694 867 790 169 42 261 46 1073 43 834 -3 837 -3 1137 57 741 148 1263 619 1573 1416 45 116 48 136 23 142 -33 8 -3235 5 -3463 -3 -260 -9 -467 -35 -645 -81 -147 -37 -189 -49 -264 -75 -426 -149 -778 -379 -1092 -715 -511 -549 -765 -1010 -899 -1634 -77 -358 -102 -447 -180 -645 -486 -1228 -1787 -1839 -2975 -1399 -1372 509 -2013 2161 -1350 3479 406 805 1205 1300 2101 1300 377 0 675 -56 1058 -200 74 -27 139 -50 144 -50 19 0 97 113 582 840 134 201 274 408 312 461 69 98 78 119 56 137 -47 37 -515 218 -763 293 -871 265 -1800 270 -2595 14 -391 -126 -821 -336 -1062 -518 -27 -21 -56 -36 -64 -33 -12 5 -14 171 -14 1078 0 1339 -9 1642 -61 2003 -137 967 -549 1610 -1305 2038 -91 52 -299 147 -320 147 -12 0 -14 -622 -14 -4412z"/></g></svg>